<svg xmlns="http://www.w3.org/2000/svg" xmlns:xlink="http://www.w3.org/1999/xlink" width="1920" height="1080" viewBox="0 0 1920 1080">
  <defs>
    <linearGradient id="linear-gradient" x1="0.5" x2="0.5" y2="1" gradientUnits="objectBoundingBox">
      <stop offset="0" stop-color="#fb874c"/>
      <stop offset="1" stop-color="#ff3119"/>
    </linearGradient>
    <linearGradient id="linear-gradient-2" x1="0.5" x2="0.5" y2="1" gradientUnits="objectBoundingBox">
      <stop offset="0" stop-color="#ff9758"/>
      <stop offset="1" stop-color="#ff9859"/>
    </linearGradient>
    <clipPath id="clip-Web_1920_1">
      <rect width="1920" height="1080"/>
    </clipPath>
  </defs>
  <g id="Web_1920_1" data-name="Web 1920 – 1" clip-path="url(#clip-Web_1920_1)">
    <g id="_416-glasses-1" data-name="416-glasses-1" transform="translate(427.999 -81.197)">
      <path id="路径_2" data-name="路径 2" d="M512,465.493c-21.333,0-29.867,10.88-42.667,25.813l1.493,37.12A55.68,55.68,0,0,1,512,505.6a55.68,55.68,0,0,1,42.667,22.827v-37.76c-12.8-14.293-21.333-25.173-42.667-25.173Z" fill="#e8f4fa"/>
      <path id="路径_3" data-name="路径 3" d="M21.333,485.12,168.32,211.2a134.613,134.613,0,0,1,70.613-61.867L294.4,128a21.333,21.333,0,0,1,28.587,24.107,95.787,95.787,0,0,1-83.2,76.373,48.64,48.64,0,0,0-38.4,26.667L64,529.493Zm981.337,0L855.68,211.2a134.613,134.613,0,0,0-70.613-61.867L729.6,128a21.333,21.333,0,0,0-28.587,24.107,95.787,95.787,0,0,0,83.2,76.373,48.64,48.64,0,0,1,38.4,26.667L960,529.493Z" fill="#87898c"/>
      <path id="路径_4" data-name="路径 4" d="M168.32,256a135.467,135.467,0,0,1,70.613-64L294.4,170.667a21.333,21.333,0,0,1,21.333,2.987,93.226,93.226,0,0,0,7.893-22.827A21.333,21.333,0,0,0,294.4,128l-55.467,21.333A135.467,135.467,0,0,0,168.32,211.2L21.333,485.12,36.48,500.907Zm540.587-81.493a21.333,21.333,0,0,1,21.333-2.987l55.467,21.333A135.467,135.467,0,0,1,855.68,256L987.52,501.76l15.147-15.787L855.68,211.2a135.467,135.467,0,0,0-70.613-61.867L729.6,128a21.333,21.333,0,0,0-28.587,24.107,93.226,93.226,0,0,0,7.893,22.4Z" fill="#bdbec0"/>
      <path id="路径_5" data-name="路径 5" d="M40.747,465.493H96V540.16H40.747a19.413,19.413,0,0,1-19.413-19.413V485.12a19.413,19.413,0,0,1,19.413-19.627Zm942.506,74.88H928V465.706h55.253a19.413,19.413,0,0,1,19.413,19.413v35.627a19.413,19.413,0,0,1-19.413,19.627Z" fill="#e8f4fa"/>
      <path id="路径_6" data-name="路径 6" d="M85.333,529.493S64,530.986,64,497.493s23.893-64,213.333-64S480,477.653,480,508.16s-21.333,21.333-21.333,21.333Zm853.334,0s21.333,1.493,21.333-32-23.893-64-213.333-64S544,477.653,544,508.16s21.333,21.333,21.333,21.333Z" fill="#87898c"/>
      <path id="路径_7" data-name="路径 7" d="M277.333,469.333c149.333,0,189.44,27.733,199.253,54.4A31.36,31.36,0,0,0,480,507.306c0-30.507-13.227-74.667-202.667-74.667S64,463.36,64,496.64a48.426,48.426,0,0,0,3.2,18.987C78.293,490.667,122.453,469.333,277.333,469.333Zm469.334,0c154.88,0,199.04,21.333,210.133,46.293A48.428,48.428,0,0,0,960,496.64c0-33.28-23.893-64-213.333-64S544,476.8,544,507.306a31.36,31.36,0,0,0,3.413,16.427C557.227,497.92,597.333,469.333,746.667,469.333Z" fill="#bdbec0"/>
      <path id="路径_8" data-name="路径 8" d="M85.333,529.493A628.906,628.906,0,0,1,266.666,508.16a768,768,0,0,1,192,21.333s7.04,209.92-53.333,245.333-224,42.667-277.333-21.333-42.667-224-42.667-224Z" fill="#00b8f0"/>
      <path id="路径_9" data-name="路径 9" d="M403.627,518.4a899.394,899.394,0,0,0-136.96-10.24A628.9,628.9,0,0,0,85.334,529.493s-10.667,160,42.667,224c21.333,26.88,64,41.173,109.44,46.08Z" fill="#4acfff"/>
      <path id="路径_10" data-name="路径 10" d="M938.667,529.493A628.907,628.907,0,0,0,757.334,508.16a768.007,768.007,0,0,0-192,21.333s-7.04,209.92,53.333,245.333,224,42.667,277.333-21.333,42.667-224,42.667-224Z" fill="#00b8f0"/>
      <path id="路径_11" data-name="路径 11" d="M869.547,515.413a847.34,847.34,0,0,0-112.213-7.254,768,768,0,0,0-192,21.333s-7.04,209.92,53.333,245.333a224.213,224.213,0,0,0,83.2,24.107Z" fill="#4acfff"/>
    </g>
    <text id="Awesome-Hono" transform="translate(300 925)" fill="#ea5428" font-size="180" font-family="SegoeUI, Segoe UI"><tspan x="0" y="0">Awesome-Hono</tspan></text>
    <g id="组_1" data-name="组 1" transform="translate(-5 -51)" opacity="0.9">
      <g id="组_2" data-name="组 2">
        <path id="路径_12" data-name="路径 12" d="M631.136,555.063s-17.074,28.659-21.952,51.831-10.366,47.562,0,71.343,28.027,63.855,90.834,65.685c25,.728,37.759-4.709,48.194-9.586,15.235-7.117,21.915-16.066,32.928-25.61,18.293-15.854,19.491-52.611,19.491-61.148s-5.466-27.879-26.808-64.465-66.487-94.076-66.487-94.076-26.2,37.367-32.906,47.123-23.171,39.025-23.171,39.025Z" transform="translate(-0.022 -2)" fill="url(#linear-gradient)"/>
        <path id="路径_13" data-name="路径 13" d="M704.9,539.648l-59.148,82.929s-14.025,25-7.317,48.782S676.237,717.7,704.9,715.872,762.824,692.091,767.7,667.7s-1.829-37.2-14.635-59.148S704.9,539.648,704.9,539.648Z" transform="translate(1 -1)" fill="url(#linear-gradient-2)"/>
      </g>
      <g id="组_3" data-name="组 3" transform="translate(483)">
        <path id="路径_12-2" data-name="路径 12" d="M631.136,555.063s-17.074,28.659-21.952,51.831-10.366,47.562,0,71.343,28.027,63.855,90.834,65.685c25,.728,37.759-4.709,48.194-9.586,15.235-7.117,21.915-16.066,32.928-25.61,18.293-15.854,19.491-52.611,19.491-61.148s-5.466-27.879-26.808-64.465-66.487-94.076-66.487-94.076-26.2,37.367-32.906,47.123-23.171,39.025-23.171,39.025Z" transform="translate(-0.022 -2)" fill="url(#linear-gradient)"/>
        <path id="路径_13-2" data-name="路径 13" d="M704.9,539.648l-59.148,82.929s-14.025,25-7.317,48.782S676.237,717.7,704.9,715.872,762.824,692.091,767.7,667.7s-1.829-37.2-14.635-59.148S704.9,539.648,704.9,539.648Z" transform="translate(1 -1)" fill="url(#linear-gradient-2)"/>
      </g>
    </g>
  </g>
</svg>
